<svg version="1.1" xmlns="http://www.w3.org/2000/svg" viewBox="-38.12310701229376 -17.535465215490046 86.49926235179244 33.63521630643378" fill="none" stroke="black" stroke-width="0.6%" vector-effect="non-scaling-stroke">
    <path d="M 40.30509 14.15911 L 40.30509 -5.64384 L 47.37615 -6.63399 L 13.78858 -11.33719 L 37.12311 -14.60468 L 33.58757 -15.09975 L 10.25305 -11.83226 L -23.33452 -16.53546 L -30.40559 -15.54532 L 3.18198 -10.84212 L -37.12311 -5.19827 L -33.58757 -4.7032 L 6.71751 -10.34704 L 40.30509 -5.64384" />
    <path d="M 47.37615 13.16896 L 47.37615 -6.63399" />
    <path d="M 40.30509 14.15911 L 47.37615 13.16896" />
    <path d="M 6.71751 9.45591 L 40.30509 14.15911" />
    <path d="M 6.71751 -0.44557 L 6.71751 -10.34704" />
    <path d="M 6.71751 9.45591 L 6.71751 -0.44557" />
    <path d="M -37.12311 14.60468 L -33.58757 15.09975 L -33.58757 -4.7032" />
    <path d="M -33.58757 15.09975 L 6.71751 9.45591" />
    <path d="M 37.12311 -8.0697 L 37.12311 -14.60468" />
    <path d="M -30.40559 -6.13891 L -30.40559 -15.54532" />
    <path d="M -37.12311 14.60468 L -37.12311 -5.19827" />
</svg>