<svg version="1.1" xmlns="http://www.w3.org/2000/svg" viewBox="-10.950373283391484 -20.61535003208964 21.90074656678297 41.23069991706417" fill="none" stroke="black" stroke-width="0.6%" vector-effect="non-scaling-stroke">
    <path d="M 0 19.61535 L 0 0 L 9.95037 -0.19421 L 0 -19.61535 L -9.95037 -19.42114 L 0 0" />
    <path d="M 9.95037 19.42114 L 9.95037 -0.19421" />
    <path d="M 0 19.61535 L 9.95037 19.42114" />
    <path d="M -9.95037 0.19421 L -5.22395 9.41925 L -5.22395 -0.38842 L -4.72643 0.58263" />
    <path d="M -4.72643 10.39031 L -4.72643 0.58263" />
    <path d="M -4.72643 10.39031 L -3.23387 13.30348 L -3.23387 3.4958 L -2.73635 4.46686" />
    <path d="M -2.73635 14.27454 L -2.73635 4.46686" />
    <path d="M -2.73635 14.27454 L -1.2438 17.18771 L -1.2438 7.38003 L -0.74628 8.35109" />
    <path d="M -0.74628 18.15876 L -0.74628 8.35109" />
    <path d="M -0.74628 18.15876 L 0 19.61535" />
    <path d="M -9.95037 0.19421 L -9.95037 -19.42114" />
    <path d="M -4.72643 9.40954 L -5.22395 9.41925" />
    <path d="M -2.73635 13.29377 L -3.23387 13.30348" />
    <path d="M -0.74628 17.178 L -1.2438 17.18771" />
</svg>