<svg version="1.1" xmlns="http://www.w3.org/2000/svg" viewBox="-41.70438037474848 -20.455848695599734 120.6689234455176 41.300810309774945" fill="none" stroke="black" stroke-width="0.6%" vector-effect="non-scaling-stroke">
    <path d="M 49.01747 -11.26871 L 58.41078 -9.81538" />
    <path d="M -40.70438 13.54717 L -37.57327 14.03161 L -28.17995 13.09399" />
    <path d="M -28.17995 15.48495 L -25.04885 15.96939 L -15.65553 15.03177" />
    <path d="M -15.65553 17.42273 L -12.52442 17.90718 L -3.13111 16.96956" />
    <path d="M 52.91569 -10.66558 L 52.91569 -11.65783 L 49.78459 -12.14227 L 45.88636 -11.75316" />
    <path d="M 49.01747 -11.26871 L 52.91569 -11.65783" />
    <path d="M -3.89823 -19.45585 L 33.36194 -13.69094" />
    <path d="M -3.89823 -19.45585 L -11.69468 -18.67762 L 25.56548 -12.91272 L 2.17612 -10.57804" />
    <path d="M -27.56939 -15.18027 L 2.17612 -10.57804" />
    <path d="M -27.56939 -15.18027 L -35.36584 -14.40205" />
    <path d="M -5.62034 -9.79981 L -35.36584 -14.40205" />
    <path d="M -5.62034 -9.79981 L -40.70438 -6.29779 L -37.57327 -5.81335 L -2.48923 -9.31537 L -2.48923 -6.92441" />
    <path d="M 6.90409 -7.86203 L -2.48923 -9.31537" />
    <path d="M 6.90409 -7.86203 L -28.17995 -4.36001 L -25.04885 -3.87557 L 10.0352 -7.37758 L 10.0352 -4.98662" />
    <path d="M 19.42851 -5.92425 L 10.0352 -7.37758" />
    <path d="M 19.42851 -5.92425 L -15.65553 -2.42223 L -12.52442 -1.93778 L 22.55962 -5.4398 L 22.55962 -3.04884" />
    <path d="M 27.25628 -4.71313 L 22.55962 -5.4398" />
    <path d="M 27.25628 -4.71313 L 35.05273 -5.49136" />
    <path d="M 30.35607 -6.21803 L 35.05273 -5.49136" />
    <path d="M 30.35607 -6.21803 L 65.44012 -9.72004 L 62.30901 -10.20449 L 58.41078 -9.81538" />
    <path d="M 36.49304 -13.2065 L 45.88636 -11.75316" />
    <path d="M 36.49304 -13.2065 L 40.39127 -13.59561 L 37.26016 -14.08006 L 33.36194 -13.69094" />
    <path d="M 28.69659 -12.42827 L 38.08991 -10.97493 L 14.70054 -8.64026" />
    <path d="M 5.30722 -10.09359 L 14.70054 -8.64026" />
    <path d="M 5.30722 -10.09359 L 28.69659 -12.42827 L 28.69659 -10.03731" />
    <path d="M 41.22101 -10.49049 L 50.61433 -9.03715 L 27.22497 -6.70247" />
    <path d="M 17.83165 -8.15581 L 27.22497 -6.70247" />
    <path d="M 17.83165 -8.15581 L 41.22101 -10.49049 L 41.22101 -8.09953" />
    <path d="M -11.69468 -12.72413 L -11.69468 -18.67762" />
    <path d="M 65.44012 -7.32909 L 65.44012 -9.72004" />
    <path d="M -28.17995 15.48495 L -28.17995 -4.36001" />
    <path d="M -25.04885 15.96939 L -25.04885 -3.87557" />
    <path d="M -15.65553 17.42273 L -15.65553 -2.42223" />
    <path d="M -12.52442 17.90718 L -12.52442 -1.93778" />
    <path d="M 40.39127 -12.60336 L 40.39127 -13.59561" />
    <path d="M 27.25628 -3.51765 L 27.25628 -4.71313" />
    <path d="M 35.05273 -4.29588 L 35.05273 -5.49136" />
    <path d="M -35.36584 -6.83068 L -35.36584 -14.40205" />
    <path d="M -40.70438 13.54717 L -40.70438 -6.29779" />
    <path d="M -37.57327 14.03161 L -37.57327 -5.81335" />
    <path d="M -3.13111 19.36051 L -3.13111 -0.48445 L 0 0 L 77.96454 -7.78226 L 74.83344 -8.26671 L -3.13111 -0.48445" />
    <path d="M 0 19.84496 L 0 0" />
    <path d="M -3.13111 19.36051 L 0 19.84496 L 77.96454 12.0627 L 77.96454 -7.78226" />
</svg>