<svg version="1.1" xmlns="http://www.w3.org/2000/svg" viewBox="-66.40737825975566 -20.060341518153198 118.67262089578034 38.14038774844061" fill="none" stroke="black" stroke-width="0.6%" vector-effect="non-scaling-stroke">
    <path d="M 40.30509 14.15911 L 40.30509 -5.64384 L 47.37615 -6.63399 L 27.93072 -9.35689 L 51.26524 -12.62438 L 47.72971 -13.11946 L 24.39518 -9.85197 L 13.78858 -11.33719 L 37.12311 -14.60468 L 33.58757 -15.09975 L 10.25305 -11.83226 L -0.35355 -13.31748 L 22.98097 -16.58497 L 19.44544 -17.08005 L -3.88909 -13.81256 L -14.49569 -15.29778 L 8.83883 -18.56527 L 5.3033 -19.06034 L -18.03122 -15.79285 L -23.33452 -16.53546 L -30.40559 -15.54532 L -25.10229 -14.80271 L -65.40738 -9.15886 L -61.87184 -8.66379 L -21.56676 -14.30763 L -10.96016 -12.82241 L -51.26524 -7.17857 L -47.72971 -6.6835 L -7.42462 -12.32734 L 3.18198 -10.84212 L -37.12311 -5.19827 L -33.58757 -4.7032 L 6.71751 -10.34704 L 17.32412 -8.86182 L -22.98097 -3.21798 L -19.44544 -2.72291 L 20.85965 -8.36675 L 40.30509 -5.64384" />
    <path d="M 47.37615 13.16896 L 47.37615 -6.63399" />
    <path d="M 40.30509 14.15911 L 47.37615 13.16896" />
    <path d="M 20.85965 11.4362 L 40.30509 14.15911" />
    <path d="M 20.85965 1.53473 L 20.85965 -8.36675" />
    <path d="M 20.85965 11.4362 L 20.85965 1.53473" />
    <path d="M 47.37615 7.72315 L 51.26524 7.17857 L 51.26524 -12.62438" />
    <path d="M -65.40738 10.64409 L -61.87184 11.13916 L -51.26524 9.65394" />
    <path d="M -51.26524 12.62438 L -47.72971 13.11945 L -37.12311 11.63423" />
    <path d="M -37.12311 14.60468 L -33.58757 15.09975 L -22.98097 13.61453" />
    <path d="M -22.98097 16.58497 L -19.44544 17.08005 L 20.85965 11.4362" />
    <path d="M -19.44544 17.08005 L -19.44544 -2.72291" />
    <path d="M -30.40559 -14.0601 L -30.40559 -15.54532" />
    <path d="M -21.56676 -11.33719 L -21.56676 -14.30763" />
    <path d="M -7.42462 -9.35689 L -7.42462 -12.32734" />
    <path d="M 6.71751 -7.3766 L 6.71751 -10.34704" />
    <path d="M -22.98097 16.58497 L -22.98097 -3.21798" />
    <path d="M 37.12311 -11.63423 L 37.12311 -14.60468" />
    <path d="M 22.98097 -13.61453 L 22.98097 -16.58497" />
    <path d="M 8.83883 -15.59482 L 8.83883 -18.56527" />
    <path d="M -65.40738 10.64409 L -65.40738 -9.15886" />
    <path d="M -61.87184 11.13916 L -61.87184 -8.66379" />
    <path d="M -51.26524 12.62438 L -51.26524 -7.17857" />
    <path d="M -47.72971 13.11945 L -47.72971 -6.6835" />
    <path d="M -37.12311 14.60468 L -37.12311 -5.19827" />
    <path d="M -33.58757 15.09975 L -33.58757 -4.7032" />
</svg>