<svg version="1.1" xmlns="http://www.w3.org/2000/svg" viewBox="-55.49883604601432 -20.724600865815745 110.99767221779518 41.44920159721649" fill="none" stroke="black" stroke-width="0.6%" vector-effect="non-scaling-stroke">
    <path d="M -4.19222 19.27395 L -4.19222 -0.45065 L 0 0 L 54.49884 -13.86615 L 50.30662 -14.3168 L -4.19222 -0.45065" />
    <path d="M 0 19.7246 L 0 0" />
    <path d="M -4.19222 19.27395 L 0 19.7246 L 54.49884 5.85845 L 54.49884 -13.86615" />
    <path d="M -54.49884 13.86615 L -54.49884 -5.85845 L -50.30662 -5.4078 L 4.19222 -19.27395 L 0 -19.7246 L -54.49884 -5.85845" />
    <path d="M -50.30662 14.3168 L -50.30662 -5.4078" />
    <path d="M -54.49884 13.86615 L -50.30662 14.3168 L -37.72996 11.11692" />
    <path d="M 4.19222 -14.72212 L 4.19222 -19.27395" />
    <path d="M -37.72996 15.66875 L -37.72996 -4.05585 L -33.53774 -3.6052 L 20.96109 -17.47135 L 16.76887 -17.922 L -37.72996 -4.05585" />
    <path d="M -33.53774 16.1194 L -33.53774 -3.6052" />
    <path d="M -37.72996 15.66875 L -33.53774 16.1194 L -20.96109 12.91952" />
    <path d="M 20.96109 -12.91952 L 20.96109 -17.47135" />
    <path d="M -20.96109 17.47135 L -20.96109 -2.25325 L -16.76887 -1.8026 L 37.72996 -15.66875 L 33.53774 -16.1194 L -20.96109 -2.25325" />
    <path d="M -16.76887 17.922 L -16.76887 -1.8026" />
    <path d="M -20.96109 17.47135 L -16.76887 17.922 L -4.19222 14.72212" />
    <path d="M 37.72996 -11.11692 L 37.72996 -15.66875" />
</svg>