<svg version="1.1" xmlns="http://www.w3.org/2000/svg" viewBox="-27.110027994582953 -18.207182343479307 52.187666053866195 44.395619856771674" fill="none" stroke="black" stroke-width="0.6%" vector-effect="non-scaling-stroke">
    <path d="M -26.11003 13.18576 L -17.11979 25.18844 L 14.01937 2.75622 L 16.53394 0.76604 L 16.36004 0.53387" />
    <path d="M 11.13305 -15.07341 L 8.01913 -12.83019 L -2.03914 -4.86946 L -16.05176 5.22503 L -7.06152 17.22771 L 24.07764 -5.20451 L 15.0874 -17.20718 L 11.48085 -14.60907" />
    <path d="M -18.56633 7.21522 L -16.05176 5.22503" />
    <path d="M -18.39243 7.44739 L -23.59546 11.19558 L -14.60523 23.19825 L 16.53394 0.76604" />
    <path d="M -26.11003 13.18576 L -23.59546 11.19558" />
    <path d="M -17.11979 25.18844 L -14.60523 23.19825" />
    <path d="M 7.06827 0.8891 L 17.12654 -7.07163 L 11.13305 -15.07341" />
    <path d="M 8.01913 -12.83019 L 14.01262 -4.82841 L 17.12654 -7.07163" />
    <path d="M -2.03914 -4.86946 L 3.95435 3.13232 L 7.06827 0.8891" />
    <path d="M 3.95435 3.13232 L 14.01262 -4.82841" />
    <path d="M -18.56633 7.21522 L -9.57609 19.21789 L -7.06152 17.22771" />
    <path d="M -9.57609 19.21789 L 21.56307 -3.21432 L 24.07764 -5.20451" />
</svg>