<svg version="1.1" xmlns="http://www.w3.org/2000/svg" viewBox="-31.40559259102155 -17.535465215490046 97.8129708507772 37.59580658512111" fill="none" stroke="black" stroke-width="0.6%" vector-effect="non-scaling-stroke">
    <path d="M 40.30509 14.15911 L 40.30509 -5.64384 L 47.37615 -6.63399 L 42.07285 -7.3766 L 65.40738 -10.64409 L 61.87184 -11.13916 L 38.53732 -7.87167 L -23.33452 -16.53546 L -30.40559 -15.54532 L 31.46625 -6.88153 L -8.83883 -1.23768 L -5.3033 -0.74261 L 35.00179 -6.38645 L 40.30509 -5.64384" />
    <path d="M 47.37615 13.16896 L 47.37615 -6.63399" />
    <path d="M 40.30509 14.15911 L 47.37615 13.16896" />
    <path d="M 35.00179 13.4165 L 40.30509 14.15911" />
    <path d="M 35.00179 3.51502 L 35.00179 -6.38645" />
    <path d="M 35.00179 13.4165 L 35.00179 3.51502" />
    <path d="M 47.37615 11.68374 L 65.40738 9.15886 L 65.40738 -10.64409" />
    <path d="M -30.40559 4.25763 L -8.83883 7.27758" />
    <path d="M -8.83883 18.56527 L -5.3033 19.06034 L -5.3033 -0.74261" />
    <path d="M -5.3033 19.06034 L 35.00179 13.4165" />
    <path d="M -30.40559 4.25763 L -30.40559 -15.54532" />
    <path d="M -8.83883 18.56527 L -8.83883 -1.23768" />
</svg>