<svg version="1.1" xmlns="http://www.w3.org/2000/svg" viewBox="-39.89087396526011 -16.347287957297524 79.78174793052023 32.69457591459505" fill="none" stroke="black" stroke-width="0.6%" vector-effect="non-scaling-stroke">
    <path d="M 31.81981 15.34729 L 31.81981 -4.45566 L 38.89087 -5.44581" />
    <path d="M 38.89087 14.35714 L 38.89087 -5.44581" />
    <path d="M 31.81981 15.34729 L 38.89087 14.35714" />
    <path d="M -1.76777 10.64409 L 31.81981 15.34729" />
    <path d="M -1.76777 -9.15886 L -1.76777 10.64409" />
    <path d="M 31.81981 -4.45566 L -1.76777 -9.15886" />
    <path d="M 5.3033 -10.14901 L 38.89087 -5.44581" />
    <path d="M -38.89087 5.44581 L -37.12311 5.69335" />
    <path d="M -37.12311 14.60468 L -33.58757 15.09975 L -33.58757 -4.7032 L -1.76777 -9.15886" />
    <path d="M -33.58757 15.09975 L -1.76777 10.64409" />
    <path d="M 5.3033 -10.14901 L 37.12311 -14.60468 L 33.58757 -15.09975 L 1.76777 -10.64409" />
    <path d="M -31.81981 -15.34729 L 1.76777 -10.64409" />
    <path d="M -31.81981 -15.34729 L -38.89087 -14.35714" />
    <path d="M -5.3033 -9.65394 L -38.89087 -14.35714" />
    <path d="M -5.3033 -9.65394 L -37.12311 -5.19827 L -33.58757 -4.7032" />
    <path d="M 37.12311 -5.69335 L 37.12311 -14.60468" />
    <path d="M -38.89087 5.44581 L -38.89087 -14.35714" />
    <path d="M -37.12311 14.60468 L -37.12311 -5.19827" />
</svg>