<svg version="1.1" xmlns="http://www.w3.org/2000/svg" viewBox="-44.46463320561049 -19.05040439150529 119.81906681849125 39.8739128695364" fill="none" stroke="black" stroke-width="0.6%" vector-effect="non-scaling-stroke">
    <path d="M 18.37243 -3.0816 L 18.37243 -5.26112 L 27.64651 -5.75695" />
    <path d="M 27.64651 -4.18717 L 27.64651 -5.75695" />
    <path d="M 17.26801 -5.6241 L 17.26801 -2.94994" />
    <path d="M 18.37243 -5.26112 L 17.26801 -5.6241" />
    <path d="M 25.18064 -6.56738 L 27.64651 -5.75695" />
    <path d="M -43.46463 13.41697 L -40.1212 13.90978 L -30.0909 12.71405" />
    <path d="M -30.0909 15.38821 L -26.74747 15.88102 L -16.71717 14.68529" />
    <path d="M -16.71717 17.35945 L -13.37373 17.85227 L -3.34343 16.65654" />
    <path d="M 25.18064 -6.56738 L 60.9807 -10.83516 L 57.63727 -11.32797 L 23.19035 -7.2215" />
    <path d="M 17.21947 -9.18386 L 23.19035 -7.2215" />
    <path d="M 17.21947 -9.18386 L 47.60697 -12.8064 L 44.26353 -13.29921 L 15.22918 -9.83798" />
    <path d="M 9.2583 -11.80034 L 15.22918 -9.83798" />
    <path d="M 9.2583 -11.80034 L 34.23323 -14.77765 L 30.8898 -15.27046 L 7.268 -12.45446" />
    <path d="M -9.75877 -18.0504 L 7.268 -12.45446" />
    <path d="M -9.75877 -18.0504 L -19.03284 -17.55457" />
    <path d="M -0.64463 -11.51118 L -19.03284 -17.55457" />
    <path d="M -0.64463 -11.51118 L -43.46463 -6.40654 L -40.1212 -5.91373 L 1.34566 -10.85706 L 1.34566 -8.1829" />
    <path d="M 7.31654 -8.8947 L 1.34566 -10.85706" />
    <path d="M 7.31654 -8.8947 L -30.0909 -4.4353 L -26.74747 -3.94248 L 9.30684 -8.24058 L 9.30684 -5.56642" />
    <path d="M 15.27772 -6.27822 L 9.30684 -8.24058" />
    <path d="M 15.27772 -6.27822 L -16.71717 -2.46405 L -13.37373 -1.97124 L 17.26801 -5.6241" />
    <path d="M -13.37373 17.85227 L -13.37373 -1.97124" />
    <path d="M 60.9807 -8.161 L 60.9807 -10.83516" />
    <path d="M -19.03284 -9.31909 L -19.03284 -17.55457" />
    <path d="M -16.71717 17.35945 L -16.71717 -2.46405" />
    <path d="M 34.23323 -12.10349 L 34.23323 -14.77765" />
    <path d="M 47.60697 -10.13224 L 47.60697 -12.8064" />
    <path d="M -26.74747 15.88102 L -26.74747 -3.94248" />
    <path d="M -30.0909 15.38821 L -30.0909 -4.4353" />
    <path d="M -40.1212 13.90978 L -40.1212 -5.91373" />
    <path d="M -43.46463 13.41697 L -43.46463 -6.40654" />
    <path d="M -3.34343 19.3307 L -3.34343 -0.49281 L 0 0 L 74.35443 -8.86392 L 71.011 -9.35673 L -3.34343 -0.49281" />
    <path d="M 0 19.82351 L 0 0" />
    <path d="M -3.34343 19.3307 L 0 19.82351 L 74.35443 10.95959 L 74.35443 -8.86392" />
</svg>