<svg version="1.1" xmlns="http://www.w3.org/2000/svg" viewBox="-44.18365051658525 -17.938030099060395 119.92458338738533 38.7637834830269" fill="none" stroke="black" stroke-width="0.6%" vector-effect="non-scaling-stroke">
    <path d="M 34.29778 -4.89673 L 34.29778 -6.21845 L 41.77188 -7.09352" />
    <path d="M 41.77188 -5.7718 L 41.77188 -7.09352" />
    <path d="M 29.31505 -6.95679 L 29.31505 -4.31335" />
    <path d="M 34.29778 -6.21845 L 29.31505 -6.95679" />
    <path d="M 36.78915 -7.83186 L 41.77188 -7.09352" />
    <path d="M -43.18365 13.42682 L -39.86183 13.91905 L -29.89637 12.75229" />
    <path d="M -29.89637 15.39572 L -26.57455 15.88795 L -16.6091 14.72119" />
    <path d="M -16.6091 17.36462 L -13.28728 17.85685 L -3.32182 16.69009" />
    <path d="M 36.78915 -7.83186 L 61.45366 -10.71958 L 58.13184 -11.2118 L 33.46733 -8.32408" />
    <path d="M 23.50187 -9.80076 L 33.46733 -8.32408" />
    <path d="M 23.50187 -9.80076 L 48.16638 -12.68848 L 44.84456 -13.18071 L 20.18005 -10.29298" />
    <path d="M 10.21459 -11.76966 L 20.18005 -10.29298" />
    <path d="M 10.21459 -11.76966 L 34.8791 -14.65738 L 31.55728 -15.14961 L 6.89277 -12.26189" />
    <path d="M -24.66451 -16.93803 L 6.89277 -12.26189" />
    <path d="M -24.66451 -16.93803 L -32.1386 -16.06296" />
    <path d="M -0.58132 -11.38682 L -32.1386 -16.06296" />
    <path d="M -0.58132 -11.38682 L -43.18365 -6.39893 L -39.86183 -5.90671 L 2.7405 -10.89459 L 2.7405 -8.25116" />
    <path d="M 12.70596 -9.41792 L 2.7405 -10.89459" />
    <path d="M 12.70596 -9.41792 L -29.89637 -4.43003 L -26.57455 -3.9378 L 16.02778 -8.92569 L 16.02778 -6.28226" />
    <path d="M 25.99324 -7.44901 L 16.02778 -8.92569" />
    <path d="M 25.99324 -7.44901 L -16.6091 -2.46113 L -13.28728 -1.9689 L 29.31505 -6.95679" />
    <path d="M -13.28728 17.85685 L -13.28728 -1.9689" />
    <path d="M 61.45366 -8.07615 L 61.45366 -10.71958" />
    <path d="M -32.1386 -7.69209 L -32.1386 -16.06296" />
    <path d="M -16.6091 17.36462 L -16.6091 -2.46113" />
    <path d="M 34.8791 -12.01395 L 34.8791 -14.65738" />
    <path d="M 48.16638 -10.04505 L 48.16638 -12.68848" />
    <path d="M -26.57455 15.88795 L -26.57455 -3.9378" />
    <path d="M -29.89637 15.39572 L -29.89637 -4.43003" />
    <path d="M -39.86183 13.91905 L -39.86183 -5.90671" />
    <path d="M -43.18365 13.42682 L -43.18365 -6.39893" />
    <path d="M -3.32182 19.33353 L -3.32182 -0.49223 L 0 0 L 74.74093 -8.75068 L 71.41911 -9.2429 L -3.32182 -0.49223" />
    <path d="M 0 19.82575 L 0 0" />
    <path d="M -3.32182 19.33353 L 0 19.82575 L 74.74093 11.07508 L 74.74093 -8.75068" />
</svg>